<?xml version="1.0" encoding="UTF-8" standalone="no" ?>
<!DOCTYPE svg PUBLIC "-//W3C//DTD SVG 1.1//EN" "http://www.w3.org/Graphics/SVG/1.1/DTD/svg11.dtd">
<svg xmlns="http://www.w3.org/2000/svg" xmlns:xlink="http://www.w3.org/1999/xlink" version="1.1" width="640" height="640" viewBox="0 0 640 640" xml:space="preserve">
<desc>Created with Fabric.js 4.6.0</desc>
<defs>
</defs>
<g transform="matrix(0.7 0 0 0.34 259.09 341.12)" id="T55_pPO0wlVFpuHp5PRN-"  >
<path style="stroke: rgb(36,179,199); stroke-width: 0; stroke-dasharray: none; stroke-linecap: butt; stroke-dashoffset: 0; stroke-linejoin: miter; stroke-miterlimit: 4; fill: rgb(170,184,176); fill-opacity: 0.5; fill-rule: nonzero; opacity: 1;" vector-effect="non-scaling-stroke"  transform=" translate(0, 0)" d="M 0 -63.25036 C 34.9142 -63.25036 63.25036 -34.9142 63.25036 0 C 63.25036 34.9142 34.9142 63.25036 0 63.25036 C -34.9142 63.25036 -63.25036 34.9142 -63.25036 0 C -63.25036 -34.9142 -34.9142 -63.25036 0 -63.25036 z" stroke-linecap="round" />
</g>
<g transform="matrix(0.7 0 0 0.34 431.36 341.31)" id="6fAZbk2hwjaxrleBGkMaT"  >
<path style="stroke: rgb(36,179,199); stroke-width: 0; stroke-dasharray: none; stroke-linecap: butt; stroke-dashoffset: 0; stroke-linejoin: miter; stroke-miterlimit: 4; fill: rgb(170,184,176); fill-opacity: 0.5; fill-rule: nonzero; opacity: 1;" vector-effect="non-scaling-stroke"  transform=" translate(0, 0)" d="M 0 -63.25036 C 34.9142 -63.25036 63.25036 -34.9142 63.25036 0 C 63.25036 34.9142 34.9142 63.25036 0 63.25036 C -34.9142 63.25036 -63.25036 34.9142 -63.25036 0 C -63.25036 -34.9142 -34.9142 -63.25036 0 -63.25036 z" stroke-linecap="round" />
</g>
<g transform="matrix(1 0 0 1 259.09 277.4)" id="Ms57vcWbxVR7C7iVjzFNN"  >
<path style="stroke: rgb(70,60,121); stroke-width: 0; stroke-dasharray: none; stroke-linecap: butt; stroke-dashoffset: 0; stroke-linejoin: miter; stroke-miterlimit: 4; fill: rgb(255,165,0); fill-rule: nonzero; opacity: 1;" vector-effect="non-scaling-stroke"  transform=" translate(-63.72, -63.72)" d="M 63.71889 0 C 98.89171999999999 0 127.43778 28.54606 127.43778 63.71889 C 127.43778 98.89171999999999 98.89172 127.43778 63.71889 127.43778 C 28.546060000000004 127.43778 0 98.89172 0 63.71889 C 0 28.546060000000004 28.54606 0 63.71889 0 z" stroke-linecap="round" />
</g>
<g transform="matrix(1 0 0 1 431.36 277.4)" id="gAGpAddFmer3w08A1gkjn"  >
<path style="stroke: rgb(70,60,121); stroke-width: 0; stroke-dasharray: none; stroke-linecap: butt; stroke-dashoffset: 0; stroke-linejoin: miter; stroke-miterlimit: 4; fill: rgb(255,243,18); fill-rule: nonzero; opacity: 1;" vector-effect="non-scaling-stroke"  transform=" translate(-63.72, -63.72)" d="M 63.71889 0 C 98.89171999999999 0 127.43778 28.54606 127.43778 63.71889 C 127.43778 98.89171999999999 98.89172 127.43778 63.71889 127.43778 C 28.546060000000004 127.43778 0 98.89172 0 63.71889 C 0 28.546060000000004 28.54606 0 63.71889 0 z" stroke-linecap="round" />
</g>
<g transform="matrix(1 0 0 1 253 262.63)" id="3tXffaM3Wox6i3Lu5IjT2"  >
<path style="stroke: rgb(48,56,115); stroke-width: 0; stroke-dasharray: none; stroke-linecap: butt; stroke-dashoffset: 0; stroke-linejoin: miter; stroke-miterlimit: 4; fill: rgb(255,255,255); fill-rule: nonzero; opacity: 1;" vector-effect="non-scaling-stroke"  transform=" translate(-23.89, -23.89)" d="M 23.89458 0 C 37.08439 0 47.78916 10.70477 47.78916 23.89458 C 47.78916 37.08439 37.08439 47.78916 23.89458 47.78916 C 10.704770000000002 47.78916 0 37.08439 0 23.89458 C 0 10.704770000000002 10.70477 0 23.89458 0 z" stroke-linecap="round" />
</g>
<g transform="matrix(1 0 0 1 282.99 262.63)" id="tcrZXPnsBp4c0KVCE6sTN"  >
<path style="stroke: rgb(48,56,115); stroke-width: 0; stroke-dasharray: none; stroke-linecap: butt; stroke-dashoffset: 0; stroke-linejoin: miter; stroke-miterlimit: 4; fill: rgb(255,255,255); fill-rule: nonzero; opacity: 1;" vector-effect="non-scaling-stroke"  transform=" translate(-23.89, -23.89)" d="M 23.89458 0 C 37.08439 0 47.78916 10.70477 47.78916 23.89458 C 47.78916 37.08439 37.08439 47.78916 23.89458 47.78916 C 10.704770000000002 47.78916 0 37.08439 0 23.89458 C 0 10.704770000000002 10.70477 0 23.89458 0 z" stroke-linecap="round" />
</g>
<g transform="matrix(1 0 0 1 407.47 262.63)" id="rEOhrp2hz5iKoWKa0DtBj"  >
<path style="stroke: rgb(48,56,115); stroke-width: 0; stroke-dasharray: none; stroke-linecap: butt; stroke-dashoffset: 0; stroke-linejoin: miter; stroke-miterlimit: 4; fill: rgb(255,255,255); fill-rule: nonzero; opacity: 1;" vector-effect="non-scaling-stroke"  transform=" translate(-23.89, -23.89)" d="M 23.89458 0 C 37.08439 0 47.78916 10.70477 47.78916 23.89458 C 47.78916 37.08439 37.08439 47.78916 23.89458 47.78916 C 10.704770000000002 47.78916 0 37.08439 0 23.89458 C 0 10.704770000000002 10.70477 0 23.89458 0 z" stroke-linecap="round" />
</g>
<g transform="matrix(0.63 0 0 0.63 260.88 260.84)" id="ZKQfVHG_oQIdUr9pRo4Vc"  >
<path style="stroke: rgb(80,208,113); stroke-width: 0; stroke-dasharray: none; stroke-linecap: butt; stroke-dashoffset: 0; stroke-linejoin: miter; stroke-miterlimit: 4; fill: rgb(0,0,0); fill-rule: nonzero; opacity: 1;" vector-effect="non-scaling-stroke"  transform=" translate(0, 0)" d="M 0 -8.42639 C 4.65136 -8.42639 8.42639 -4.65137 8.42639 0 C 8.42639 4.65136 4.65137 8.42639 0 8.42639 C -4.65136 8.42639 -8.42639 4.65137 -8.42639 0 C -8.42639 -4.65136 -4.65137 -8.42639 0 -8.42639 z" stroke-linecap="round" />
</g>
<g transform="matrix(1 0 0 1 439.04 262.63)" id="Tum8Zead-cvASzglbnJy0"  >
<path style="stroke: rgb(48,56,115); stroke-width: 0; stroke-dasharray: none; stroke-linecap: butt; stroke-dashoffset: 0; stroke-linejoin: miter; stroke-miterlimit: 4; fill: rgb(255,255,255); fill-rule: nonzero; opacity: 1;" vector-effect="non-scaling-stroke"  transform=" translate(-23.89, -23.89)" d="M 23.89458 0 C 37.08439 0 47.78916 10.70477 47.78916 23.89458 C 47.78916 37.08439 37.08439 47.78916 23.89458 47.78916 C 10.704770000000002 47.78916 0 37.08439 0 23.89458 C 0 10.704770000000002 10.70477 0 23.89458 0 z" stroke-linecap="round" />
</g>
<g transform="matrix(0.61 0 0 0.61 288.13 260.99)" id="w1flyIc_TABW6icFHi_4Q"  >
<path style="stroke: rgb(80,208,113); stroke-width: 0; stroke-dasharray: none; stroke-linecap: butt; stroke-dashoffset: 0; stroke-linejoin: miter; stroke-miterlimit: 4; fill: rgb(0,0,0); fill-rule: nonzero; opacity: 1;" vector-effect="non-scaling-stroke"  transform=" translate(0, 0)" d="M 0 -8.42639 C 4.65136 -8.42639 8.42639 -4.65137 8.42639 0 C 8.42639 4.65136 4.65137 8.42639 0 8.42639 C -4.65136 8.42639 -8.42639 4.65137 -8.42639 0 C -8.42639 -4.65136 -4.65137 -8.42639 0 -8.42639 z" stroke-linecap="round" />
</g>
<g transform="matrix(0.58 0 0 0.58 400.83 259.11)" id="fju5uHuR_mkOSGi3aLIaM"  >
<path style="stroke: rgb(80,208,113); stroke-width: 0; stroke-dasharray: none; stroke-linecap: butt; stroke-dashoffset: 0; stroke-linejoin: miter; stroke-miterlimit: 4; fill: rgb(0,0,0); fill-rule: nonzero; opacity: 1;" vector-effect="non-scaling-stroke"  transform=" translate(0, 0)" d="M 0 -8.42639 C 4.65136 -8.42639 8.42639 -4.65137 8.42639 0 C 8.42639 4.65136 4.65137 8.42639 0 8.42639 C -4.65136 8.42639 -8.42639 4.65137 -8.42639 0 C -8.42639 -4.65136 -4.65137 -8.42639 0 -8.42639 z" stroke-linecap="round" />
</g>
<g transform="matrix(0.6 0 0 0.6 428 259.26)" id="DJuWhzfSeEAkNbKfXzQbf"  >
<path style="stroke: rgb(80,208,113); stroke-width: 0; stroke-dasharray: none; stroke-linecap: butt; stroke-dashoffset: 0; stroke-linejoin: miter; stroke-miterlimit: 4; fill: rgb(0,0,0); fill-rule: nonzero; opacity: 1;" vector-effect="non-scaling-stroke"  transform=" translate(0, 0)" d="M 0 -8.42639 C 4.65136 -8.42639 8.42639 -4.65137 8.42639 0 C 8.42639 4.65136 4.65137 8.42639 0 8.42639 C -4.65136 8.42639 -8.42639 4.65137 -8.42639 0 C -8.42639 -4.65136 -4.65137 -8.42639 0 -8.42639 z" stroke-linecap="round" />
</g>
<g transform="matrix(0.19 0 0 0.19 268.62 286.31)" id="8H1k8tSrnauOxyH8-LItL"  >
<path style="stroke: rgb(219,199,159); stroke-width: 0; stroke-dasharray: none; stroke-linecap: butt; stroke-dashoffset: 0; stroke-linejoin: miter; stroke-miterlimit: 4; fill: rgb(0,0,0); fill-rule: nonzero; opacity: 1;" vector-effect="non-scaling-stroke"  transform=" translate(0, 0)" d="M 0 -46.85212 C 25.86237 -46.85212 46.85212 -25.86237 46.85212 0 C 46.85212 25.86237 25.86237 46.85212 0 46.85212 C -25.86237 46.85212 -46.85212 25.86237 -46.85212 0 C -46.85212 -25.86237 -25.86237 -46.85212 0 -46.85212 z" stroke-linecap="round" />
</g>
<g transform="matrix(0.13 0 0 0.26 425.37 307.3)" id="d3PTIdihRYkpGEtQuAJ_h"  >
<path style="stroke: rgb(57,91,115); stroke-width: 0; stroke-dasharray: none; stroke-linecap: butt; stroke-dashoffset: 0; stroke-linejoin: miter; stroke-miterlimit: 4; fill: rgb(241,38,42); fill-rule: nonzero; opacity: 1;" vector-effect="non-scaling-stroke"  transform=" translate(0, 0)" d="M 0 -47.32065 C 26.121 -47.32065 47.32065 -26.121000000000002 47.32065 0 C 47.32065 26.121 26.121000000000002 47.32065 0 47.32065 C -26.121 47.32065 -47.32065 26.121000000000002 -47.32065 0 C -47.32065 -26.121 -26.121000000000002 -47.32065 0 -47.32065 z" stroke-linecap="round" />
</g>
<g transform="matrix(0.24 0 0 0.13 254.76 309.53)" id="aVJxaDtxkVB33UCSN9EZt"  >
<path style="stroke: rgb(57,91,115); stroke-width: 0; stroke-dasharray: none; stroke-linecap: butt; stroke-dashoffset: 0; stroke-linejoin: miter; stroke-miterlimit: 4; fill: rgb(241,38,42); fill-rule: nonzero; opacity: 1;" vector-effect="non-scaling-stroke"  transform=" translate(0, 0)" d="M 0 -47.32065 C 26.121 -47.32065 47.32065 -26.121000000000002 47.32065 0 C 47.32065 26.121 26.121000000000002 47.32065 0 47.32065 C -26.121 47.32065 -47.32065 26.121000000000002 -47.32065 0 C -47.32065 -26.121 -26.121000000000002 -47.32065 0 -47.32065 z" stroke-linecap="round" />
</g>
<g transform="matrix(-0.1 0.48 -0.48 -0.1 229.25 232.09)" id="Oxq9PMZyazBu_KCbmENm1"  >
<path style="stroke: none; stroke-width: 1; stroke-dasharray: none; stroke-linecap: butt; stroke-dashoffset: 0; stroke-linejoin: miter; stroke-miterlimit: 4; fill: rgb(255,165,0); fill-rule: nonzero; opacity: 1;" vector-effect="non-scaling-stroke"  transform=" translate(-40, -40)" d="M 0 0 L 80 80 L 0 80 L 0 0 z" stroke-linecap="round" />
</g>
<g transform="matrix(-0.48 0.11 -0.11 -0.48 288.13 230.09)" id="Rqjy5nNixx3ZFadvwStH5"  >
<path style="stroke: none; stroke-width: 1; stroke-dasharray: none; stroke-linecap: butt; stroke-dashoffset: 0; stroke-linejoin: miter; stroke-miterlimit: 4; fill: rgb(255,165,0); fill-rule: nonzero; opacity: 1;" vector-effect="non-scaling-stroke"  transform=" translate(-40, -40)" d="M 0 0 L 80 80 L 0 80 L 0 0 z" stroke-linecap="round" />
</g>
<g transform="matrix(-0.05 0.24 -0.24 -0.05 227.29 226.49)" id="l4-gcJ64cEMt9jQiWdZJs"  >
<path style="stroke: none; stroke-width: 1; stroke-dasharray: none; stroke-linecap: butt; stroke-dashoffset: 0; stroke-linejoin: miter; stroke-miterlimit: 4; fill: rgb(0,0,0); fill-rule: nonzero; opacity: 1;" vector-effect="non-scaling-stroke"  transform=" translate(-40, -40)" d="M 0 0 L 80 80 L 0 80 L 0 0 z" stroke-linecap="round" />
</g>
<g transform="matrix(-0.22 0.05 -0.05 -0.22 291.29 225.19)" id="Dw0Tja_HdBsIP6gXUt8CC"  >
<path style="stroke: none; stroke-width: 1; stroke-dasharray: none; stroke-linecap: butt; stroke-dashoffset: 0; stroke-linejoin: miter; stroke-miterlimit: 4; fill: rgb(0,0,0); fill-rule: nonzero; opacity: 1;" vector-effect="non-scaling-stroke"  transform=" translate(-40, -40)" d="M 0 0 L 80 80 L 0 80 L 0 0 z" stroke-linecap="round" />
</g>
<g transform="matrix(0.65 0.15 -0.05 0.22 167.26 289.01)" id="PN7DEoU63Ry-3lUAm3i2h"  >
<path style="stroke: rgb(148,151,142); stroke-width: 0; stroke-dasharray: none; stroke-linecap: butt; stroke-dashoffset: 0; stroke-linejoin: miter; stroke-miterlimit: 4; fill: rgb(255,165,0); fill-rule: nonzero; opacity: 1;" vector-effect="non-scaling-stroke"  transform=" translate(0, 0)" d="M 0 -67.93558 C 37.50044 -67.93558 67.93558 -37.50044 67.93558 0 C 67.93558 37.50044 37.50044 67.93558 0 67.93558 C -37.50044 67.93558 -67.93558 37.50044 -67.93558 0 C -67.93558 -37.50044 -37.50044 -67.93558 0 -67.93558 z" stroke-linecap="round" />
</g>
<g transform="matrix(0.08 0.2 -0.2 0.08 143.11 283.15)" id="v_stlMIt4mlE8Qo4X0a88"  >
<path style="stroke: none; stroke-width: 1; stroke-dasharray: none; stroke-linecap: butt; stroke-dashoffset: 0; stroke-linejoin: miter; stroke-miterlimit: 4; fill: rgb(255,255,255); fill-rule: nonzero; opacity: 1;" vector-effect="non-scaling-stroke"  transform=" translate(-40, -40)" d="M 0 0 L 80 80 L 0 80 L 0 0 z" stroke-linecap="round" />
</g>
</svg>