<svg width="500" height="500"
xmlns="http://www.w3.org/2000/svg"
xmlns:xlink="http://www.w3.org/1999/xlink">

<ellipse cx="220" cy="240" rx="30" ry="15"
 fill="gray" fill-opacity="0.5" />
<ellipse cx="340" cy="240" rx="30" ry="15"
 fill="gray" fill-opacity="0.5"/>

<circle cx="220" cy="190" r="48" fill="#ffa500" />


<circle cx="340" cy="190" r="48" fill="yellow" />


<circle cx="215" cy="180" r="18" fill="white" />
<circle cx="238" cy="180" r="18" fill="white" />
<circle cx="218" cy="180" r="4" fill="black" />
<circle cx="241" cy="180" r="4" fill="black" />

<circle cx="322" cy="180" r="18" fill="white" />
<circle cx="345" cy="180" r="18" fill="white" />
<circle cx="319" cy="180" r="4" fill="black" />
<circle cx="342" cy="180" r="4" fill="black" />

<ellipse cx="335" cy="210" rx="4" ry="10" fill="red"/>
<ellipse cx="218" cy="213" rx="8" ry="4" fill="red"/>
 
 <circle cx="227" cy="195" r="6" fill="black" />

<polygon points="5,115,50,140 15,155" fill="#ffa500" transform="translate(295 200) rotate(125) scale(0.8)"/>
<polygon points="5,115,50,140 15,155" fill="black" transform="translate(244 175) rotate(125) scale(0.4)"/>

<polygon points="5,115,50,140 15,155" fill="#ffa500" transform="translate(260 258) rotate(180) scale(0.8)"/>
<polygon points="5,115,50,140 15,155" fill="black" transform="translate(250 203) rotate(180) scale(0.4)"/>

<ellipse cx="184" cy="173" rx="40" ry="12" fill="#ffa500" transform="rotate(10)" />
<polygon points="5,115,50,140 15,155" fill="white" transform="translate(170 183) rotate(83) scale(0.35)"/>

</svg>